<svg xmlns="http://www.w3.org/2000/svg" width="280" height="609" viewBox="0 0 280 609" role="img" aria-label="Account login screen">
  <defs>
    <pattern id="dots" width="5" height="5" patternUnits="userSpaceOnUse">
      <circle cx="1.2" cy="1.2" r="0.75" fill="#dddddd"/>
    </pattern>
  </defs>
  <rect width="280" height="609" fill="#f4f4f4"/>
  <text x="30" y="27" font-family="Arial, sans-serif" font-size="12" font-weight="700" fill="#0a0a0a">00:05</text>
  <path d="M65 17a6 6 0 1 0 6 7.6A5.3 5.3 0 0 1 65 17Z" fill="#0a0a0a"/>
  <g fill="#0a0a0a"><rect x="213" y="20" width="2.5" height="5" rx="1"/><rect x="218" y="18" width="2.5" height="7" rx="1"/><rect x="223" y="16" width="2.5" height="9" rx="1"/><path d="M231 20c4-4 10-4 14 0l-2 2c-3-3-7-3-10 0Z"/><path d="M234 23c2-2 5-2 7 0l-3.5 3Z"/></g>
  <rect x="250" y="17" width="19" height="10" rx="3" fill="#a8a8a8"/><rect x="252" y="19" width="8" height="6" rx="2" fill="#48c66b"/><text x="255.5" y="25" font-family="Arial, sans-serif" font-size="8" font-weight="700" fill="#ffffff">21</text>
  <rect x="194" y="53" width="72" height="29" rx="15" fill="#d7d7d7"/><circle cx="230" cy="67.5" r="15" fill="#5c5c5c"/><text x="207" y="71" font-family="Arial, sans-serif" font-size="9" fill="#666666">中</text><text x="223" y="71" font-family="Arial, sans-serif" font-size="9" font-weight="700" fill="#ffffff">EN</text><text x="249" y="71" font-family="Arial, sans-serif" font-size="9" fill="#666666">한</text>
  <path d="M0 122c30-12 58-6 75 6 20 14 24 33 18 51-8 24-37 34-63 27-18-5-26-17-30-27Z" fill="url(#dots)" opacity="0.8"/>
  <path d="M90 145c24-8 42-4 56 6 12 9 16 22 10 35-6 15-23 21-42 19-17-2-29-11-31-24-3-13 1-27 7-36Z" fill="url(#dots)" opacity="0.72"/>
  <path d="M152 139c34-11 68-2 87 13 20 16 30 39 23 59-7 21-31 31-58 27-24-3-43-16-55-33-11-15-13-38 3-66Z" fill="url(#dots)" opacity="0.78"/>
  <path d="M208 388c27-8 51-1 64 12 11 12 11 28 1 39-12 12-34 13-51 4-15-8-24-24-14-55Z" fill="url(#dots)" opacity="0.65"/>
  <path d="M36 493c25-10 51-7 69 5 17 11 23 29 18 44-6 18-26 28-48 24-23-4-39-19-43-36-3-14-1-25 4-37Z" fill="url(#dots)" opacity="0.62"/>
  <text x="140" y="211" text-anchor="middle" font-family="Arial, sans-serif" font-size="25" font-weight="800" fill="#050505">My life memory</text>
  <rect x="27" y="238" width="226" height="191" rx="15" fill="#d8d8d8"/>
  <g transform="translate(39 252)" stroke="#050505" stroke-width="2.2" fill="none" stroke-linecap="round" stroke-linejoin="round"><rect x="0" y="7" width="13" height="11" rx="2"/><path d="M3 7V4.8a3.5 3.5 0 0 1 7 0V7"/></g>
  <text x="61" y="270" font-family="Arial, sans-serif" font-size="12" font-weight="700" fill="#070707">Account login</text>
  <text x="39" y="296" font-family="Arial, sans-serif" font-size="8.8" font-weight="600" fill="#777777">Enter your registered ID and password to log in.</text>
  <rect x="38" y="310" width="204" height="31" rx="11" fill="#eeeeee"/><text x="47" y="331" font-family="Arial, sans-serif" font-size="18" font-weight="700" fill="#050505">@</text><text x="71" y="329" font-family="Arial, sans-serif" font-size="10" font-weight="600" fill="#b6b6b6">Account</text>
  <rect x="38" y="349" width="204" height="31" rx="11" fill="#eeeeee"/><g transform="translate(48 356)" stroke="#050505" stroke-width="2" fill="none" stroke-linecap="round" stroke-linejoin="round"><rect x="0" y="6" width="12" height="11" rx="2"/><path d="M3 6V4a3 3 0 0 1 6 0v2"/></g><text x="71" y="368" font-family="Arial, sans-serif" font-size="10" font-weight="600" fill="#b6b6b6">Login password</text>
  <rect x="38" y="394" width="99" height="34" rx="17" fill="#626262"/><rect x="143" y="394" width="99" height="34" rx="17" fill="#eeeeee"/><text x="87.5" y="416" text-anchor="middle" font-family="Arial, sans-serif" font-size="10" font-weight="700" fill="#ffffff">Log in</text><text x="192.5" y="416" text-anchor="middle" font-family="Arial, sans-serif" font-size="10" font-weight="700" fill="#050505">Register</text>
</svg>
